/* XPM */
static char *PeerGuardian_xpm[] = {
/* columns rows colors chars-per-pixel */
"32 32 9 1",
"  c black",
". c #660000",
"X c #990000",
"o c #993300",
"O c #FF3333",
"+ c #FF6633",
"@ c #FF9966",
"# c #FFCC99",
"$ c None",
/* pixels */
"$$$$$$$$$$$$$$$$$$$$$$$$$$$$$$$$",
"$$$$$$$$$$$$$$$$$$$$$$$$$$$$$$$$",
"$$$$$$$$$$$$$$$$$$$$$$$$$$$$$$$$",
"$$$$$$$$$$$$$$$$$$$$$$$$$$$$$$$$",
"$$$$$$$$$$$$$$@@#$$$$$$$$$$$$$$$",
"$$$$$$$$$$$$$$+@#.O@#$$$$$$$$$$$",
"$$$$$$$$$o@##oo++o+@#$$$$$$$$$$$",
"$$$$$$$$$o+@#o@@#o+@#$$$$$$$$$$$",
"$$$$$$$$@oo+@o+@#oo+@.$$$$$$$$$$",
"$$$$$$$@@o+##oo++o+@#.$$$$$$$$$$",
"$$$$$$oo+oo+@o@@#oo++X$$$$$$$$$$",
"$$$$$$o+@o+##o+@#o+@#.$$$$$$$$$$",
"$$$$$$oo+o+@#o+@#o+@#.$$$$$$$$$$",
"$$$$$$o+@oo+@oo++ +o+.$$$$$$$$$$",
"$$$$$$o++oo##o@##@o#@X$$@#+$$$$$",
"$$$$$$oo++##########@.$@#@+$$$$$",
"$$$$$$o++#####@##@##@.$+#+o $$$$",
"$$$$$$o+@@#@@+o@@@@++.@o@+ $$$$$",
"$$$$$$o+@@@o+@@+o+++o@#@+o$$$$$$",
"$$$$$$o+@@@##@o@#@@o@##+o $$$$$$",
"$$$$$$o++####o########@+o$$$$$$$",
"$$$$$$oo+###@########@+o $$$$$$$",
"$$$$$$oo+####@######@@+o$$$$$$$$",
"$$$$$$$o++###+@@###@@+o $$$$$$$$",
"$$$$$$$o++@#@oo+@@@@++o$$$$$$$$$",
"$$$$$$$oo++@@ oo+++++o $$$$$$$$$",
"$$$$$$$$oooooo oooooo $$$$$$$$$$",
"$$$$$$$$$            $$$$$$$$$$$",
"$$$$$$$$$$$$$$$$$$$$$$$$$$$$$$$$",
"$$$$$$$$$$$$$$$$$$$$$$$$$$$$$$$$",
"$$$$$$$$$$$$$$$$$$$$$$$$$$$$$$$$",
"$$$$$$$$$$$$$$$$$$$$$$$$$$$$$$$$"
};
