/* XPM */
static char *PG_Logo_xpm[] = {
/* columns rows colors chars-per-pixel */
"112 48 32 1",
"  c black",
". c #070707",
"X c gray6",
"o c gray9",
"O c gray12",
"+ c #272727",
"@ c #2F2F2F",
"# c #373737",
"$ c #3F3F3F",
"% c gray28",
"& c gray31",
"* c gray34",
"= c #5F5F5F",
"- c #676767",
"; c #6F6F6F",
": c #777777",
"> c gray50",
", c gray53",
"< c gray56",
"1 c #979797",
"2 c #9F9F9F",
"3 c #A7A7A7",
"4 c #AFAFAF",
"5 c #B7B7B7",
"6 c gray75",
"7 c gray78",
"8 c gray81",
"9 c #D7D7D7",
"0 c #DFDFDF",
"q c #E7E7E7",
"w c #EFEFEF",
"e c gray97",
/* pixels */
"3344455566778990qweeeeeeeeeeeeeeeeeeeeeeeeeeeeeeeeeeeeeeeeeeeeeeeeeeeeeeeeeeeeeeeeeeeeeeeeeeeeeeeeeeeww000988766",
"223334455566778900qweeeeeeeeeeeeeeeeeeeeeeeeeeeeeeeeeeeeeeeeeeeeeeeeeeeeeeeeeeeeeeeeeeeeeeeeeeeeeeewwwq098876655",
"11222333445556778990wweeeeeeeeeeeeeeeeeeeeeeeeeeeeeeeeeeeeeeeeeeeeeeeeeeeeeeeeeeeeeeeeeeeeeeeeeeeeewq09887665444",
"<<<111223334456667890qwweeeewq98777776789qweewwwqqqqqweeeeeeeewwwwqweeeeeeq09887889qeeeeeeeeeeeewwq0987765544333",
"<<,<<<<122334445567889qqqwq09631<,>>>,,<1356654332333457898765433334577765432<<,<<2570eeeeeeeeewq098766544433221",
">>>>,,,,<<<112233455677888642,:-*%%%%%$$&->>>:-=*&**&*=>11<>;-=**&&*=:,,>;=&&&&%$%&:1590qwqqq00987655443322111<<",
";;;;;:::::>>>,,<<1222344531>;*%#*>>>>1344>%*%$:33334455,&=%&<55444455:&*%&>21113444--,35777666655442211<<,,,>>::",
"=====-----;;;::>>,,,,<11<,;*%##17weeeeeee2O@%39eeeeeeee1+#*4qeeeeeeee:+@-5qeeeeeeee=%->13333222111<<,,>>:::;-;--",
"***====-----;;;::>>,,<<,>;=%##:0832221280:o$3e9322213qq:o&7e9222214w0=o&8e722221305%$=:<12222<11<<,,,>>::;;;----",
"**====----;;;;::>>>,<<<<>;=$@*6,$X    &74#O:w2%X.X..:q5$+2e3$XXXXo<w1#+4q,@.  .X>8:#%=:<22222111<<<,,>>>::;;;---",
"=====----;;;::::>>,,<<<<>;&#$16>&****=7w:o%7q<*=---:ww:o=9q>&---->eq=o;09:*-===>q7%@%=:<222222111<<<,,>>>::;;;--",
"====----;;;;:::>>,,<<<<<>-%@&079wweeee0<$X;eeeeeeeeeq2%X1eeeeeeeee0,#X4eeeeeeeeew:@@%=:<2222222111<<<,,>>:::;;;-",
"===----;;;;:::>>>,<<<<<<>-&@%885556665:#@O-we0888898>$#O,ee9888998;#@o3eq8889989w2$@%=:<2333222111<<<,,,>>:::;;;",
"=-----;;;;;:::>>,,<<<<<<>;*$#,9:OOO+++@#$@%4w>OO++@+#$%#*8q:O++@@+@$$O3e2O++@@+%9e,$$*:<2333222111<<<<,,>>>:::;;",
"-----;;;;;:::>>,,,<<11<<,:=%@&0q:$@@#$%%%%#;ww:%%$#$%&&%#,wq:$&%#$%%%+4e3+@###@@%we*#*:<23332221111<<<,,,>>>:::;",
"-----;;;;;;:::>>,,<<<<<<,:-&#@*qqe;#$&*==&$$>eeee1%%===*%$1eeee,$&**&@4e3@$%%%$##qe=#*:,133322211<<<<,,,,>>>:::;",
"------------;;:>>,,,<<<<<>;=%$#%>0>%&=;;;=&%$*2ee2&*-;;-&$$=5ee<%*==*@4e4#%*=*&%$we-$=:,1222211<<,,,,,>>>>>>>:::",
"------==**====-;;::>>>>>>>;=&%$$$%%&=;:::-*&$$%&&%&-;;;;=&$$%&&&&===*&&&%&*=--=&%&&%&=;>,<<<<<,>::;;;;:::>>>>>::",
"---=-*&%%%%&&**=---;;-;:;;-=*&%%$%&=-:::;-=*&%%%%&*=---==*%%%%%%&****&&%&*==---=*%%&*=--;:>,>:;;-===*=--;:::>>::",
"----*%$$#@@#$$$%&******=-=*&%%%&*==-::;-=&&&&&**********&%%%%%%%%%%%&%%&&*=*====-=*******=-;;-=*&%%%%%&*=-:::>>>",
"---*%$+OOOOOOO+@$$%$@+#%&&%#@#%%&=-;;;-&#@#$%&&&&&&%####@+++@#++++++++#$%&&%#$**-=*&$@+@$%&***%$#+O+++#$%*-;::>>",
";-=*$+*:;-*&*=*#++#+;2-#$$&;;%+$%*=-;-&-24>%@$%%%$@%:,>>,354:$54444453;#@$#=64&&*=*$-12-#@$$%$@O%;,,>*@+#$*-;:>>",
";-=&$O;42322243<;++X10:+##&383>@$&*==*#-9ew6>@#$$#<8weeeeeee1#eeeeeeeeq6-++-eq%$&&&#:0e82=+@#@@>368874,%+#%*-::>",
";-=&$O*,;====-;11*+X>4=+@#$-<34-#$%&&%#$:<276-+@@;8831<1<<47;#98222221594%o&94#$%%$@%:>161%O+@-41:;;;>2>$@$&=;:>",
";;=&$+@=-+ .. X@=,#o-1&+@##@@%>2%@#$##+Oo.o%13#+$4<%o.. .$23#@54#+++++#;4,O$51@###@OOo.o&<>OO%1:$OOOO+&,-@#%*-:>",
";;-*$@O%>-$$%%%$=<-O;3*+###@+O&3>@@@@$*=***=15-O>5<=*====28:o#86#@@@@@+@<5&#72@++@$*=**%*<1$+>1$O++++oO;,%+$*-:>",
":;;=%#+@*>1223332<1O:4*O@###@+@44@+@*,69999885>O6680qqqqq03$o$97#@#####O:0,#83++#-<68766652*@41++@@@@+o=3-O$*-:>",
":::-*%#++&;:::::,1<O;4=O+@#@++$53@O-651<111146:O78323333377-O#78$@####@+>9:#94O+:731<<<,<32&@52@@@#@@+O-3=+%*;:>",
":::;-*%#@OOOOoXO-3&O#1<$O++++#:5=O#46*oXXXo#17&+80%++++++;97&+:9>$@+@@+&44@%04O%75$oooXo$12@#62@@##@++%<,$@%=;>,",
":>::;-*%$#@++@$=32@Oo:61&$$$%>73#O:6,$#$$$&103O+80&+#$##@+:w3O%7q,&&&%-50,o&q4+<7;##$#@&27>o$63#@###%*14=+$&-;>,",
">>>>::-=*%$@#<431#+++@>44566654$+O48888999982@@@90*#%&&%$+-w5+@%79000090,+o*q5#9788877766>+O%74##$##144-+#%*;:>,",
">>>>>::;-*%#$,1&@@###@@%>4452*@@@+36567776<&@##$79=%&===&$:q5@##$-3897,&@@@*04#77776564>%@@+%63$$$$%>:$@#%*->>,,",
">>>,,,,:;-*%$#@@#$%%%$#@@@@@@@#$$$$#@@@@@###$%%%%%&*-::;-*%%%%%%$$##$#$$$%%$$###@@@@@@@###$$$##$%&%$####%*-:>,<<",
">,,,,,,,,:-=&$%%&&===*&%$$$$%%&**&%%%$##$%%&*====*=;>,<<>;-**===&&&%$%%&*=*&&%%%%$$$$#$%%&*&%%&*===*&%%&*-:>,<<<",
">,,,,,,<<>:;-=**=-;;:;-=*&&*==----===****=---::;;:>,<2221,>::::;;--===-;;;;;-==***&****==-;-----;;:;-=-;:>,<<<<<",
",,,,,<<<<<,>>::::>>,,>::;--;;:::>::;;-;;;::>,,,<,<<1232222<<<<<,,,>>>:>,<<,,>::;;;---;;;::>>,>>,,,,>>>>>,<<111<<",
",,,,<<<<<<<<<<<<<<1<<,>:;;;;;:::>:::;;;:::>,,<<<<<<<<<11111<<<<<,,,,>,,<<<<,,>>>>>>:;;;::>,,<1<121<<111<1111111<",
",,,,<<<<<<111111111<<>;--====-------------;;::::::::::::>>>>>:::;;;;;:>,,,>>::::>>:;-----;:,<122222211111111111<",
",,,,<<<<<<111111111<>;&$#$%#$$&$$$&$$$&%#$&*%*%*$$$*%$$&*%&-=%*$$$&%$%=;:-*=&=&&---&$$&%$$&;,12222222222111111<<",
",,,,<<<<<<11111111<,:&:32=%341$145%,43*-45<*1&3$253%,43=-4<+=2$252$,54;&&><=1&63&*%<43*=33>&:<1222222222111111<<",
",,,,,<<<<<11111111<>-#4671*q>>$w11@95q;1q1--q%e@e4e%97q,,q2;=e#e4e$06q1##27-q#5e%%#05q;<966$->122222221111111<<<",
",,,,,<<<<<<1111111,:=#4=-1&8==#0;;O9@4:11+&=9#q@wXq%8%3<,3=0%q@w.w$9$4<@#16*0O@q$$@9#2;<>&6#=><12222211111111<<<",
",,,,,,<<<<<111111<,:=#2131&03<@045+6,1%2<:7&8@q@w:q$621*<3*7%q@w;w#9*5<@@<5&0+%q%#+8<7-,5<4#=><1222111111111<<<<",
",,,,,,<<<<<<<1111<,>=#296-=7#$$0&&+70:O2415&0;q@w9e%6q,O17<7%q#e9e$9=61##<8:3@&w%;$16w;=694$-><112111111111<<<<<",
">,,,,,<<<<<<<<111<,>-&2:O+-885$689%4%3:;99<&995$7+6&4&1,;002&7$7+7%5=3<%%>04+%*6%8=#O1:+O;3&;,<11111111111<<<<<<",
">,,,,,<<<<<<<<<11<<,:-&&&&%###%#$$%$%$%%$$$%##$%$%$%$%$%%#$$%$&$&$%%&&*--=%%==*&*&*=*%&**&*->,<1111111111<<<<<<<",
">,,,,,,<<<<<<<<<1<<,,:;--=-=*****==-----=====-=---=----;-=--;-------;;::::;;;;:;;;;;;----;:>,<111111111<<<<<<<<<",
">>,,,,,<<<<<<<<<<<<<<,>>>>:::::::::>>>>::::::::>>>>>>>>>>>>>>>>>>>>,,,<<<<,,,,,,,,,,>>>>>>,,<111111111<<<<<<<<<<"
};
